<svg width="16" height="16" viewBox="0 0 16 16" fill="none" xmlns="http://www.w3.org/2000/svg">
<path d="M3.5 2.75C2.6725 2.75 2 3.4225 2 4.25V9.5C2 10.3213 2.66245 10.99 3.48145 11H3.5V6.5C3.5 5.26 4.51 4.25 5.75 4.25H12C12 4.2405 11.9998 4.23118 11.9995 4.22168C11.9845 3.40718 11.318 2.75 10.5 2.75H3.5ZM5.75 5C4.92275 5 4.25 5.67275 4.25 6.5V11.75C4.25 12.5773 4.92275 13.25 5.75 13.25H12.75C13.5773 13.25 14.25 12.5773 14.25 11.75V6.5C14.25 5.67275 13.5773 5 12.75 5H5.75ZM7.375 7.25C7.85825 7.25 8.25 7.64175 8.25 8.125C8.25 8.60825 7.85825 9 7.375 9C6.89175 9 6.5 8.60825 6.5 8.125C6.5 7.64175 6.89175 7.25 7.375 7.25ZM10.7212 9.02197C10.9256 9.02135 11.13 9.09398 11.2925 9.24023L13.25 11.0024V11.75C13.25 12.025 13.025 12.25 12.75 12.25H5.75C5.475 12.25 5.25 12.025 5.25 11.75V11.3398L6.54004 10.23C6.86004 9.95498 7.33234 9.95254 7.65234 10.2275L8.375 10.8452L10.1499 9.24268C10.3124 9.09643 10.5168 9.0226 10.7212 9.02197Z" fill="black"/>
</svg>

