<svg width="16" height="16" viewBox="0 0 16 16" fill="none" xmlns="http://www.w3.org/2000/svg">
<path d="M4.22279 3.33325C3.99546 3.33325 3.76765 3.42011 3.59432 3.59367C3.24721 3.94078 3.24721 4.5035 3.59432 4.85061L6.74362 7.99992L3.59432 11.1492C3.24721 11.4963 3.24721 12.0591 3.59432 12.4062C3.76765 12.5795 3.99546 12.6666 4.22279 12.6666C4.45012 12.6666 4.67793 12.5797 4.85126 12.4062L8.00057 9.25686L11.1499 12.4062C11.4965 12.7533 12.0599 12.7533 12.4068 12.4062C12.7542 12.0588 12.7542 11.4966 12.4068 11.1492L9.25751 7.99992L12.4068 4.85061C12.7539 4.5035 12.7539 3.94078 12.4068 3.59367C12.0602 3.24678 11.4965 3.24656 11.1499 3.59367L8.00057 6.74297L4.85126 3.59367C4.67793 3.42034 4.45012 3.33325 4.22279 3.33325Z" fill="#24272F"/>
</svg>
