<svg preserveAspectRatio="none" width="100%" height="100%" overflow="visible" style="display: block;" viewBox="0 0 20 20" fill="none" xmlns="http://www.w3.org/2000/svg">
<g id="Frame">
<path id="Vector" d="M10 2.5C5.86426 2.5 2.5 5.86426 2.5 10C2.5 14.1357 5.86426 17.5 10 17.5C14.1357 17.5 17.5 14.1357 17.5 10C17.5 5.86426 14.1357 2.5 10 2.5ZM10 3.75C13.4595 3.75 16.25 6.54053 16.25 10C16.25 13.4595 13.4595 16.25 10 16.25C6.54053 16.25 3.75 13.4595 3.75 10C3.75 6.54053 6.54053 3.75 10 3.75ZM9.375 5V10.625H13.75V9.375H10.625V5H9.375Z" fill="var(--fill-0, #6D707E)"/>
</g>
</svg>
