<svg preserveAspectRatio="none" width="100%" height="100%" overflow="visible" style="display: block;" viewBox="0 0 6.46154 6.46154" fill="none" xmlns="http://www.w3.org/2000/svg">
<path id="Vector" d="M0.615327 0C0.457942 0 0.300231 0.0601346 0.180231 0.180288C-0.0600769 0.420596 -0.0600769 0.810173 0.180231 1.05048L2.36052 3.23077L0.180231 5.41106C-0.0600769 5.65137 -0.0600769 6.04094 0.180231 6.28125C0.300231 6.40125 0.457942 6.46154 0.615327 6.46154C0.772711 6.46154 0.930423 6.4014 1.05042 6.28125L3.23071 4.10096L5.411 6.28125C5.651 6.52156 6.04104 6.52156 6.28119 6.28125C6.52165 6.04079 6.52165 5.65152 6.28119 5.41106L4.1009 3.23077L6.28119 1.05048C6.5215 0.810173 6.5215 0.420596 6.28119 0.180288C6.04119 -0.0598654 5.651 -0.0600192 5.411 0.180288L3.23071 2.36058L1.05042 0.180288C0.930423 0.0602885 0.772711 0 0.615327 0Z" fill="var(--fill-0, black)"/>
</svg>
