<svg preserveAspectRatio="none" width="100%" height="100%" overflow="visible" style="display: block;" viewBox="0 0 7.26923 7.26923" fill="none" xmlns="http://www.w3.org/2000/svg">
<path id="Vector" d="M0.692243 0C0.515185 0 0.33776 0.0676514 0.20276 0.202825C-0.0675865 0.473171 -0.0675865 0.911445 0.20276 1.18179L2.65558 3.63462L0.20276 6.08744C-0.0675865 6.35779 -0.0675865 6.79606 0.20276 7.06641C0.33776 7.20141 0.515185 7.26923 0.692243 7.26923C0.869301 7.26923 1.04673 7.20158 1.18173 7.06641L3.63455 4.61358L6.08738 7.06641C6.35738 7.33675 6.79617 7.33675 7.06634 7.06641C7.33686 6.79589 7.33686 6.35796 7.06634 6.08744L4.61352 3.63462L7.06634 1.18179C7.33669 0.911445 7.33669 0.473171 7.06634 0.202825C6.79634 -0.0673486 6.35738 -0.0675216 6.08738 0.202825L3.63455 2.65565L1.18173 0.202825C1.04673 0.0678245 0.869301 0 0.692243 0Z" fill="var(--fill-0, black)"/>
</svg>
