<svg preserveAspectRatio="none" width="100%" height="100%" overflow="visible" style="display: block;" viewBox="0 0 14 14" fill="none" xmlns="http://www.w3.org/2000/svg">
<path id="Vector" d="M1.33321 0C0.992208 0 0.6505 0.130292 0.3905 0.390625C-0.130167 0.911292 -0.130167 1.75538 0.3905 2.27604L5.11446 7L0.3905 11.724C-0.130167 12.2446 -0.130167 13.0887 0.3905 13.6094C0.6505 13.8694 0.992208 14 1.33321 14C1.67421 14 2.01592 13.8697 2.27592 13.6094L6.99987 8.88542L11.7238 13.6094C12.2438 14.13 13.0889 14.13 13.6093 13.6094C14.1303 13.0884 14.1303 12.245 13.6093 11.724L8.88529 7L13.6093 2.27604C14.1299 1.75538 14.1299 0.911292 13.6093 0.390625C13.0893 -0.129708 12.2438 -0.130042 11.7238 0.390625L6.99987 5.11458L2.27592 0.390625C2.01592 0.130625 1.67421 0 1.33321 0Z" fill="var(--fill-0, #24272F)"/>
</svg>
