<svg width="18" height="18" viewBox="0 0 18 18" fill="none" xmlns="http://www.w3.org/2000/svg">
<path d="M3 5.25C3 4.85218 3.15804 4.47064 3.43934 4.18934C3.72064 3.90804 4.10218 3.75 4.5 3.75H13.5C13.8978 3.75 14.2794 3.90804 14.5607 4.18934C14.842 4.47064 15 4.85218 15 5.25V14.25C15 14.6478 14.842 15.0294 14.5607 15.3107C14.2794 15.592 13.8978 15.75 13.5 15.75H4.5C4.10218 15.75 3.72064 15.592 3.43934 15.3107C3.15804 15.0294 3 14.6478 3 14.25V5.25Z" stroke="#40434F" stroke-width="1.33333" stroke-linecap="round" stroke-linejoin="round"/>
<path d="M12 2.25V5.25" stroke="#40434F" stroke-width="1.33333" stroke-linecap="round" stroke-linejoin="round"/>
<path d="M6 2.25V5.25" stroke="#40434F" stroke-width="1.33333" stroke-linecap="round" stroke-linejoin="round"/>
<path d="M3 8.25H15" stroke="#40434F" stroke-width="1.33333" stroke-linecap="round" stroke-linejoin="round"/>
<path d="M5.25 10.5H5.25975" stroke="#40434F" stroke-width="1.33333" stroke-linecap="round" stroke-linejoin="round"/>
<path d="M7.50781 10.5H7.51156" stroke="#40434F" stroke-width="1.33333" stroke-linecap="round" stroke-linejoin="round"/>
<path d="M9.75781 10.5H9.76156" stroke="#40434F" stroke-width="1.33333" stroke-linecap="round" stroke-linejoin="round"/>
<path d="M12.0117 10.5H12.0155" stroke="#40434F" stroke-width="1.33333" stroke-linecap="round" stroke-linejoin="round"/>
<path d="M9.76172 12.75H9.76547" stroke="#40434F" stroke-width="1.33333" stroke-linecap="round" stroke-linejoin="round"/>
<path d="M5.25781 12.75H5.26156" stroke="#40434F" stroke-width="1.33333" stroke-linecap="round" stroke-linejoin="round"/>
<path d="M7.50781 12.75H7.51156" stroke="#40434F" stroke-width="1.33333" stroke-linecap="round" stroke-linejoin="round"/>
</svg>
