<svg preserveAspectRatio="none" width="100%" height="100%" overflow="visible" style="display: block;" viewBox="0 0 16 16" fill="none" xmlns="http://www.w3.org/2000/svg">
<g id="Frame">
<path id="Vector" d="M12.334 7.33331H14.0007C14.1847 7.33331 14.334 7.48265 14.334 7.66665V8.33331C14.334 8.51731 14.1847 8.66665 14.0007 8.66665H12.334V7.33331Z" fill="var(--fill-0, #9BA3D8)"/>
<path id="Vector_2" d="M9.33398 2.66669H14.0007C14.1847 2.66669 14.334 2.81602 14.334 3.00002V3.66669C14.334 3.85069 14.1847 4.00002 14.0007 4.00002H9.33398V2.66669Z" fill="var(--fill-0, #9BA3D8)"/>
<path id="Vector_3" d="M8.33268 2.66669H1.99935C1.81535 2.66669 1.66602 2.81602 1.66602 3.00002V3.66669C1.66602 3.85069 1.81535 4.00002 1.99935 4.00002H8.33268V2.66669Z" fill="var(--fill-0, #4250AF)"/>
<path id="Vector_4" d="M11.666 7.33331H1.99935C1.81535 7.33331 1.66602 7.48265 1.66602 7.66665V8.33331C1.66602 8.51731 1.81535 8.66665 1.99935 8.66665H11.666V7.33331Z" fill="var(--fill-0, #4250AF)"/>
<path id="Vector_5" d="M5.99935 12H1.99935C1.81535 12 1.66602 12.1493 1.66602 12.3333V13C1.66602 13.184 1.81535 13.3333 1.99935 13.3333H5.99935V12Z" fill="var(--fill-0, #4250AF)"/>
<path id="Vector_6" d="M9.16602 4.66667H7.83268C7.74068 4.66667 7.66602 4.592 7.66602 4.5V2.16667C7.66602 2.07467 7.74068 2 7.83268 2H9.16602C9.25802 2 9.33268 2.07467 9.33268 2.16667V4.5C9.33268 4.592 9.25802 4.66667 9.16602 4.66667Z" fill="var(--fill-0, #9BA3D8)"/>
<path id="Vector_7" d="M12.166 9.33335H10.8327C10.7407 9.33335 10.666 9.25869 10.666 9.16669V6.83335C10.666 6.74135 10.7407 6.66669 10.8327 6.66669H12.166C12.258 6.66669 12.3327 6.74135 12.3327 6.83335V9.16669C12.3327 9.25869 12.258 9.33335 12.166 9.33335Z" fill="var(--fill-0, #9BA3D8)"/>
<path id="Vector_8" d="M6.83398 14H5.50065C5.40865 14 5.33398 13.9253 5.33398 13.8333V11.5C5.33398 11.408 5.40865 11.3333 5.50065 11.3333H6.83398C6.92598 11.3333 7.00065 11.408 7.00065 11.5V13.8333C7.00065 13.9253 6.92598 14 6.83398 14Z" fill="var(--fill-0, #9BA3D8)"/>
<path id="Vector_9" d="M7 12H14C14.184 12 14.3333 12.1493 14.3333 12.3333V13C14.3333 13.184 14.184 13.3333 14 13.3333H7V12Z" fill="var(--fill-0, #9BA3D8)"/>
</g>
</svg>
