<svg preserveAspectRatio="none" width="100%" height="100%" overflow="visible" style="display: block;" viewBox="0 0 16 16" fill="none" xmlns="http://www.w3.org/2000/svg">
<g id="Frame">
<path id="Vector" d="M12.334 7.33337H14.0007C14.1847 7.33337 14.334 7.48271 14.334 7.66671V8.33337C14.334 8.51737 14.1847 8.66671 14.0007 8.66671H12.334V7.33337Z" fill="var(--fill-0, #9BA3D8)"/>
<path id="Vector_2" d="M9.33398 2.66663H14.0007C14.1847 2.66663 14.334 2.81596 14.334 2.99996V3.66663C14.334 3.85063 14.1847 3.99996 14.0007 3.99996H9.33398V2.66663Z" fill="var(--fill-0, #9BA3D8)"/>
<path id="Vector_3" d="M8.33268 2.66663H1.99935C1.81535 2.66663 1.66602 2.81596 1.66602 2.99996V3.66663C1.66602 3.85063 1.81535 3.99996 1.99935 3.99996H8.33268V2.66663Z" fill="var(--fill-0, #4250AF)"/>
<path id="Vector_4" d="M11.666 7.33337H1.99935C1.81535 7.33337 1.66602 7.48271 1.66602 7.66671V8.33337C1.66602 8.51737 1.81535 8.66671 1.99935 8.66671H11.666V7.33337Z" fill="var(--fill-0, #4250AF)"/>
<path id="Vector_5" d="M5.99935 12H1.99935C1.81535 12 1.66602 12.1493 1.66602 12.3333V13C1.66602 13.184 1.81535 13.3333 1.99935 13.3333H5.99935V12Z" fill="var(--fill-0, #4250AF)"/>
<path id="Vector_6" d="M9.16602 4.66667H7.83268C7.74068 4.66667 7.66602 4.592 7.66602 4.5V2.16667C7.66602 2.07467 7.74068 2 7.83268 2H9.16602C9.25802 2 9.33268 2.07467 9.33268 2.16667V4.5C9.33268 4.592 9.25802 4.66667 9.16602 4.66667Z" fill="var(--fill-0, #9BA3D8)"/>
<path id="Vector_7" d="M12.166 9.33329H10.8327C10.7407 9.33329 10.666 9.25863 10.666 9.16663V6.83329C10.666 6.74129 10.7407 6.66663 10.8327 6.66663H12.166C12.258 6.66663 12.3327 6.74129 12.3327 6.83329V9.16663C12.3327 9.25863 12.258 9.33329 12.166 9.33329Z" fill="var(--fill-0, #9BA3D8)"/>
<path id="Vector_8" d="M6.83398 14H5.50065C5.40865 14 5.33398 13.9254 5.33398 13.8334V11.5C5.33398 11.408 5.40865 11.3334 5.50065 11.3334H6.83398C6.92598 11.3334 7.00065 11.408 7.00065 11.5V13.8334C7.00065 13.9254 6.92598 14 6.83398 14Z" fill="var(--fill-0, #9BA3D8)"/>
<path id="Vector_9" d="M7 12H14C14.184 12 14.3333 12.1493 14.3333 12.3333V13C14.3333 13.184 14.184 13.3333 14 13.3333H7V12Z" fill="var(--fill-0, #9BA3D8)"/>
</g>
</svg>
