<svg width="16" height="16" viewBox="0 0 16 16" fill="none" xmlns="http://www.w3.org/2000/svg">
<rect width="16" height="16" rx="8" fill="#2A2D38"/>
<mask id="mask0_1489_566" style="mask-type:alpha" maskUnits="userSpaceOnUse" x="2" y="2" width="12" height="12">
<path d="M5.38486 4.76929C5.22747 4.76929 5.06976 4.82942 4.94976 4.94958C4.70945 5.18988 4.70945 5.57946 4.94976 5.81977L7.13005 8.00006L4.94976 10.1803C4.70945 10.4207 4.70945 10.8102 4.94976 11.0505C5.06976 11.1705 5.22747 11.2308 5.38486 11.2308C5.54224 11.2308 5.69995 11.1707 5.81995 11.0505L8.00024 8.87025L10.1805 11.0505C10.4205 11.2908 10.8106 11.2908 11.0507 11.0505C11.2912 10.8101 11.2912 10.4208 11.0507 10.1803L8.87043 8.00006L11.0507 5.81977C11.291 5.57946 11.291 5.18988 11.0507 4.94958C10.8107 4.70942 10.4205 4.70927 10.1805 4.94958L8.00024 7.12986L5.81995 4.94958C5.69995 4.82958 5.54224 4.76929 5.38486 4.76929Z" fill="black"/>
</mask>
<g mask="url(#mask0_1489_566)">
<rect x="2.46094" y="2.46155" width="11.0769" height="11.0769" fill="white"/>
</g>
</svg>
