<svg width="18" height="18" viewBox="0 0 18 18" fill="none" xmlns="http://www.w3.org/2000/svg">
<path d="M8.99902 2.71289C10.2951 2.71289 11.4289 3.16073 12.4268 4.08105C13.3871 4.96682 13.8877 6.16161 13.8877 7.73926C13.8877 8.35374 13.7498 8.97858 13.4609 9.61816C13.1575 10.2902 12.7769 10.9372 12.3184 11.5596C11.8521 12.1923 11.3475 12.7827 10.8047 13.3311C10.2459 13.8956 9.72991 14.3924 9.25586 14.8213L9.24316 14.832L9.23242 14.8438C9.21259 14.8636 9.19255 14.8751 9.16602 14.8838C9.10371 14.9041 9.04738 14.9121 8.99512 14.9121C8.94305 14.9121 8.8897 14.9046 8.83301 14.8857C8.80975 14.878 8.7891 14.8662 8.7666 14.8438L8.75488 14.832L8.74316 14.8213L8.37988 14.4863C8.00852 14.1394 7.61339 13.7544 7.19434 13.3311C6.65151 12.7827 6.14688 12.1923 5.68066 11.5596C5.22209 10.9372 4.84157 10.2902 4.53809 9.61816C4.24925 8.97859 4.11133 8.35375 4.11133 7.73926C4.11136 6.16158 4.61186 4.96682 5.57227 4.08105C6.57004 3.16086 7.70311 2.71298 8.99902 2.71289ZM8.99805 5.73926C8.49059 5.73926 8.03945 5.92773 7.68164 6.28711C7.32463 6.64577 7.1377 7.09616 7.1377 7.60254C7.1377 8.10989 7.3263 8.56019 7.68555 8.91797C8.04424 9.27509 8.49452 9.46289 9.00098 9.46289C9.50827 9.46289 9.95865 9.27421 10.3164 8.91504C10.6735 8.5564 10.8613 8.10599 10.8613 7.59961C10.8613 7.09215 10.6729 6.64101 10.3135 6.2832C9.95485 5.92617 9.5044 5.73931 8.99805 5.73926Z" stroke="#40434F" stroke-width="1.3"/>
</svg>
