<svg width="16" height="16" viewBox="0 0 16 16" fill="none" xmlns="http://www.w3.org/2000/svg">
<path d="M8.5 2C6.63036 2 5.125 3.60571 5.125 5.6V6.2C4.50625 6.2 4 6.74 4 7.4V13.4C4 14.06 4.50625 14.6 5.125 14.6H11.875C12.4938 14.6 13 14.06 13 13.4V7.4C13 6.74 12.4938 6.2 11.875 6.2V5.6C11.875 3.60571 10.3696 2 8.5 2ZM8.5 3.2C9.78036 3.2 10.75 4.23429 10.75 5.6V6.2H6.25V5.6C6.25 4.23429 7.21964 3.2 8.5 3.2ZM8.5 9.2C9.11875 9.2 9.625 9.74 9.625 10.4C9.625 11.06 9.11875 11.6 8.5 11.6C7.88125 11.6 7.375 11.06 7.375 10.4C7.375 9.74 7.88125 9.2 8.5 9.2Z" fill="black"/>
</svg>

