<svg width="16" height="16" viewBox="0 0 16 16" fill="none" xmlns="http://www.w3.org/2000/svg">
<path d="M12.0007 5.33333C12.0007 6.06971 11.4037 6.66667 10.6673 6.66667C9.93092 6.66667 9.33398 6.06971 9.33398 5.33333C9.33398 4.59695 9.93092 4 10.6673 4C11.4037 4 12.0007 4.59695 12.0007 5.33333Z" fill="#24272F"/>
<path fill-rule="evenodd" clip-rule="evenodd" d="M7.96663 1.75H8.03337C9.37546 1.74999 10.4272 1.74999 11.2478 1.86032C12.0878 1.97325 12.7506 2.20891 13.2709 2.72915C13.7911 3.24939 14.0267 3.91219 14.1397 4.75216C14.25 5.57278 14.25 6.62455 14.25 7.96663V8.01796C14.25 9.12773 14.25 10.0362 14.1897 10.7759C14.1292 11.5192 14.0051 12.1403 13.7273 12.6562C13.6047 12.8838 13.4542 13.0876 13.2709 13.2709C12.7506 13.7911 12.0878 14.0267 11.2478 14.1397C10.4272 14.25 9.37546 14.25 8.03337 14.25H7.96663C6.62455 14.25 5.57278 14.25 4.75216 14.1397C3.91219 14.0267 3.24939 13.7911 2.72915 13.2709C2.26794 12.8097 2.02977 12.2356 1.90311 11.5235C1.77869 10.824 1.75593 9.95366 1.7512 8.87296C1.75 8.59808 1.75 8.30733 1.75 8.00058V7.96663C1.74999 6.62456 1.74999 5.57278 1.86032 4.75216C1.97325 3.91219 2.20891 3.24939 2.72915 2.72915C3.24939 2.20891 3.91219 1.97325 4.75216 1.86032C5.57278 1.74999 6.62456 1.74999 7.96663 1.75ZM4.86836 2.72463C4.1251 2.82456 3.67701 3.01462 3.34581 3.34581C3.01462 3.67701 2.82456 4.1251 2.72463 4.86836C2.62302 5.62416 2.62209 6.61731 2.62209 8C2.62209 8.1689 2.62209 8.33227 2.62229 8.49041L3.20435 7.9811C3.73416 7.51756 4.53266 7.54413 5.03045 8.04192L7.52448 10.5359C7.92401 10.9355 8.55296 10.99 9.01529 10.6651L9.18866 10.5433C9.8539 10.0757 10.754 10.1299 11.3584 10.6738L13.004 12.1548C13.1696 11.807 13.268 11.3499 13.3205 10.7051C13.3776 10.0048 13.3779 9.13134 13.3779 8C13.3779 6.61731 13.377 5.62416 13.2753 4.86836C13.1755 4.1251 12.9854 3.67701 12.6542 3.34581C12.323 3.01462 11.8749 2.82456 11.1316 2.72463C10.3758 2.62302 9.38267 2.62209 8 2.62209C6.61731 2.62209 5.62416 2.62302 4.86836 2.72463Z" fill="#24272F"/>
</svg>
