<svg width="16" height="16" viewBox="0 0 16 16" fill="none" xmlns="http://www.w3.org/2000/svg">
<path d="M6.66602 1.33337L5.99935 2.00004H3.33268C2.93268 2.00004 2.66602 2.26671 2.66602 2.66671C2.66602 3.06671 2.93268 3.33337 3.33268 3.33337H4.66602H11.3327H12.666C13.066 3.33337 13.3327 3.06671 13.3327 2.66671C13.3327 2.26671 13.066 2.00004 12.666 2.00004H9.99935L9.33268 1.33337H6.66602ZM3.33268 4.66671V13.3334C3.33268 14.0667 3.93268 14.6667 4.66602 14.6667H11.3327C12.066 14.6667 12.666 14.0667 12.666 13.3334V4.66671H3.33268ZM5.99935 6.00004C6.39935 6.00004 6.66602 6.26671 6.66602 6.66671V12.6667C6.66602 13.0667 6.39935 13.3334 5.99935 13.3334C5.59935 13.3334 5.33268 13.0667 5.33268 12.6667V6.66671C5.33268 6.26671 5.59935 6.00004 5.99935 6.00004ZM9.99935 6.00004C10.3993 6.00004 10.666 6.26671 10.666 6.66671V12.6667C10.666 13.0667 10.3993 13.3334 9.99935 13.3334C9.59935 13.3334 9.33268 13.0667 9.33268 12.6667V6.66671C9.33268 6.26671 9.59935 6.00004 9.99935 6.00004Z" fill="black"/>
</svg>

